<?xml version="1.0" encoding="UTF-8"?><svg id="Layer_1" xmlns="http://www.w3.org/2000/svg" viewBox="0 0 500 500"><defs><style>.cls-1{fill:#fff;}.cls-2{fill:#ed1c24;}</style></defs><path class="cls-2" d="m359.04,497.68c-17,6.7-36.21-1.63-42.91-18.63l-49-124.09c10.73-2.38,21.32-5.62,31.71-9.72,10.41-4.12,20.36-8.98,29.8-14.58l49.01,124.1c6.71,16.98-1.63,36.2-18.61,42.91Z"/><path class="cls-2" d="m319.98,308.72c-9.24,5.74-19.17,10.75-29.69,14.91-10.52,4.14-21.16,7.26-31.84,9.39-11.88,2.38-23.78,3.53-35.54,3.53-68.4,0-131.91-39.03-157.46-103.71C31.57,147.05,77.31,48.59,167.61,12.94,189.83,4.16,212.67,0,234.99,0,303.39,0,366.91,39.03,392.46,103.71c29.92,75.79-2.28,161.48-72.48,205.01Z"/><ellipse class="cls-1" cx="246.18" cy="212.69" rx="108.15" ry="75.77" transform="translate(-60.91 105.29) rotate(-21.55)"/><ellipse class="cls-1" cx="143.35" cy="207.26" rx="34.92" ry="35.45" transform="translate(-66.1 67.14) rotate(-21.55)"/><ellipse class="cls-1" cx="318.1" cy="138.25" rx="34.92" ry="35.45" transform="translate(-28.55 126.5) rotate(-21.55)"/><path class="cls-1" d="m231.08,153.9c-.43.17-.88.29-1.36.37-3.47.53-6.74-1.89-7.3-5.4l-10.4-65.29c-.27-1.71.15-3.46,1.17-4.84,1.02-1.38,2.55-2.29,4.25-2.5l32.47-4.16c3.48-.45,6.7,2.05,7.17,5.58.48,3.53-1.95,6.75-5.44,7.19l-26.01,3.34,9.36,58.77c.48,3.03-1.21,5.89-3.91,6.96Z"/><ellipse class="cls-1" cx="254.06" cy="77.77" rx="14.66" ry="14.88" transform="translate(-10.81 98.75) rotate(-21.55)"/></svg>